<svg id="uinlogo" width="120" height="89" xmlns="http://www.w3.org/2000/svg" viewBox="0 0 113.22 84.35"><defs><style>.cls-1{fill:#fff}</style></defs><title>uin-logo</title><g id="Layer_2" data-name="Layer 2"><g id="Tela_cadastro" data-name="Tela cadastro"><g id="_Group_" data-name="&amp;lt;Group&amp;gt;"><g id="_Group_2" data-name="&amp;lt;Group&amp;gt;"><path id="_Compound_Path_" data-name="&amp;lt;Compound Path&amp;gt;" class="cls-1" d="M61.89 29.79a5.23 5.23 0 0 1-.43 2.13 5.47 5.47 0 0 1-1.18 1.72 5.72 5.72 0 0 1-1.75 1.17 5.49 5.49 0 0 1-4.28 0 5.48 5.48 0 0 1-2.9-2.89 5.38 5.38 0 0 1 0-4.24 5.44 5.44 0 0 1 2.9-2.9 5.49 5.49 0 0 1 4.28 0 5.73 5.73 0 0 1 1.75 1.17 5.43 5.43 0 0 1 1.18 1.74 5.26 5.26 0 0 1 .43 2.1zm-1.41 40.78h-8.23V38.51h8.23z"/><path id="_Compound_Path_2" data-name="&amp;lt;Compound Path&amp;gt;" class="cls-1" d="M77.28 70.57H69.1V38.51h2l2.69 3.11a14.38 14.38 0 0 1 9.7-3.74A13.84 13.84 0 0 1 89 39a14.35 14.35 0 0 1 4.55 3.08 14.6 14.6 0 0 1 3.07 4.58 14 14 0 0 1 1.12 5.58v18.33h-8.16V52.25a6 6 0 0 0-.48-2.38 6.17 6.17 0 0 0-3.26-3.28 5.9 5.9 0 0 0-2.37-.48 6.19 6.19 0 0 0-2.42.48 6.09 6.09 0 0 0-3.29 3.28 6 6 0 0 0-.48 2.38z"/></g><g id="_Group_3" data-name="&amp;lt;Group&amp;gt;"><path id="_Path_" data-name="&amp;lt;Path&amp;gt;" class="cls-1" d="M0 25.77a.92.92 0 0 0 .19-.33 1.72 1.72 0 0 1 1.84-1 1.71 1.71 0 0 1 1.46 1.64v25.61a22.59 22.59 0 0 0 .74 6A14.11 14.11 0 0 0 7 63.09a12.16 12.16 0 0 0 5 3.59 16.54 16.54 0 0 0 4.46 1 20.07 20.07 0 0 0 2.91.05A14.49 14.49 0 0 0 27 65.39a11.88 11.88 0 0 0 3.81-4.24 16.61 16.61 0 0 0 1.86-6 30.39 30.39 0 0 0 .22-3.7V27.16a15.1 15.1 0 0 1 1.57-6.84 11.86 11.86 0 0 1 8.37-6.57 15.81 15.81 0 0 1 3.83-.37h56.45a8.77 8.77 0 0 0 2.11-.18 6.75 6.75 0 0 0 3.49-1.93 5 5 0 0 0 .85-1.25 2.48 2.48 0 0 0 .25-1.13 4.27 4.27 0 0 1 .05-1.06.9.9 0 0 0 0-.41 4.75 4.75 0 0 0-1.93-2.77 6.94 6.94 0 0 0-4.06-1.36h-.23c-9.09-.07-18.19 0-27.28 0H63.48c-5.51.06-11 0-16.52 0a2.8 2.8 0 0 1-1.65-.45A1.59 1.59 0 0 1 45 .61a1.14 1.14 0 0 1 .5-.33 4.27 4.27 0 0 1 1-.22.83.83 0 0 0 .33-.06H105a10.43 10.43 0 0 1 5.43 2.41A8.38 8.38 0 0 1 113 6.2c.12.35.15.71.23 1.07V75.4a5.69 5.69 0 0 0-.1.94 8.53 8.53 0 0 1-3.33 5.37 12 12 0 0 1-6.86 2.5 1.21 1.21 0 0 0-.55.13H46.15a2.77 2.77 0 0 0-.58-.27 1.63 1.63 0 0 1-.95-1.37 1.68 1.68 0 0 1 1.59-1.85h55.31a11.85 11.85 0 0 0 2.78-.25 7.87 7.87 0 0 0 4.25-2.4 4.68 4.68 0 0 0 1.23-3.14v-8.11-51.6c0-.14.08-.34-.08-.42s-.25.08-.36.15a11.11 11.11 0 0 1-4.91 1.66c-.46 0-.93.07-1.4.07h-57a10.94 10.94 0 0 0-3.89.7 8.47 8.47 0 0 0-4.4 3.93 11.93 11.93 0 0 0-1.32 4.09 6.66 6.66 0 0 0 0 .95v24.85a25.7 25.7 0 0 1-.8 6.71A18.55 18.55 0 0 1 32.86 64a15.42 15.42 0 0 1-6.95 5.48 20.07 20.07 0 0 1-5 1.25 22 22 0 0 1-4 .13 18.35 18.35 0 0 1-9.44-2.91 15.5 15.5 0 0 1-4.9-5.24 19.08 19.08 0 0 1-2.29-7.07c-.07-.53-.13-1.05-.16-1.58a1.61 1.61 0 0 0-.12-.63z"/><path id="_Path_2" data-name="&amp;lt;Path&amp;gt;" class="cls-1" d="M74.51 5.59H103.61a.89.89 0 0 1 .83.88.91.91 0 0 1-.77.9 4.81 4.81 0 0 1-.83 0H45.92a3.16 3.16 0 0 1-.68-.05.88.88 0 0 1-.71-.94.87.87 0 0 1 .79-.83 4.5 4.5 0 0 1 .49 0z"/><path id="_Path_3" data-name="&amp;lt;Path&amp;gt;" class="cls-1" d="M74.46 9.07h29.14a.89.89 0 0 1 .05 1.77 2.8 2.8 0 0 1-.34 0h-58a.89.89 0 0 1 0-1.77h.49z"/></g></g></g></g></svg>